<svg width="49" height="49" viewBox="0 0 49 49" fill="none" xmlns="http://www.w3.org/2000/svg">
<path d="M48.0379 4.7713C48.3474 5.08176 48.5212 5.50225 48.5212 5.94062C48.5212 6.37898 48.3474 6.79947 48.0379 7.10993L44.583 10.5682L37.958 3.94318L41.4129 0.484928C41.7235 0.174429 42.1447 0 42.5839 0C43.0231 0 43.4443 0.174429 43.7548 0.484928L48.0379 4.76799V4.7713ZM42.241 12.9068L35.616 6.2818L13.048 28.8532C12.8657 29.0354 12.7284 29.2578 12.6472 29.5024L9.9806 37.4988C9.93224 37.6446 9.92537 37.8009 9.96077 37.9504C9.99616 38.0998 10.0724 38.2365 10.181 38.3451C10.2896 38.4537 10.4263 38.53 10.5758 38.5654C10.7252 38.6008 10.8816 38.5939 11.0273 38.5456L19.0237 35.879C19.2681 35.7987 19.4904 35.6626 19.673 35.4815L42.241 12.9068Z" fill="#ffffff"/>
<path fill-rule="evenodd" clip-rule="evenodd" d="M0 43.0638C0 44.3816 0.523492 45.6455 1.45531 46.5773C2.38713 47.5091 3.65096 48.0326 4.96875 48.0326H41.4062C42.724 48.0326 43.9879 47.5091 44.9197 46.5773C45.8515 45.6455 46.375 44.3816 46.375 43.0638V23.1888C46.375 22.7496 46.2005 22.3283 45.8899 22.0177C45.5793 21.7071 45.158 21.5326 44.7188 21.5326C44.2795 21.5326 43.8582 21.7071 43.5476 22.0177C43.237 22.3283 43.0625 22.7496 43.0625 23.1888V43.0638C43.0625 43.5031 42.888 43.9244 42.5774 44.235C42.2668 44.5456 41.8455 44.7201 41.4062 44.7201H4.96875C4.52949 44.7201 4.10821 44.5456 3.7976 44.235C3.487 43.9244 3.3125 43.5031 3.3125 43.0638V6.62634C3.3125 6.18708 3.487 5.7658 3.7976 5.4552C4.10821 5.14459 4.52949 4.97009 4.96875 4.97009H26.5C26.9393 4.97009 27.3605 4.7956 27.6711 4.48499C27.9818 4.17438 28.1562 3.75311 28.1562 3.31384C28.1562 2.87458 27.9818 2.4533 27.6711 2.1427C27.3605 1.83209 26.9393 1.65759 26.5 1.65759H4.96875C3.65096 1.65759 2.38713 2.18108 1.45531 3.11291C0.523492 4.04473 0 5.30855 0 6.62634V43.0638Z" fill="#ffffff"/>
</svg>
