<?xml version="1.0" encoding="utf-8"?>
<!-- Svg Vector Icons : http://www.onlinewebfonts.com/icon -->
<!DOCTYPE svg PUBLIC "-//W3C//DTD SVG 1.1//EN" "http://www.w3.org/Graphics/SVG/1.1/DTD/svg11.dtd">
<svg version="1.1" xmlns="http://www.w3.org/2000/svg" xmlns:xlink="http://www.w3.org/1999/xlink" x="0px" y="0px" viewBox="0 0 256 256" enable-background="new 0 0 256 256" xml:space="preserve">
<metadata> Svg Vector Icons : http://www.onlinewebfonts.com/icon </metadata>
<g><g><g><path fill="#00A2C7" d="M36.7,21.5c-9.9,2.2-18.5,8.9-23.1,18c-3.8,7.7-3.6,2.6-3.6,88.5c0,65.7,0.2,77.6,0.8,80.7c2,9.4,9.1,18.5,17.8,22.9c8,4,1.2,3.8,101.2,3.6l89.3-0.2l3.8-1.4c10.4-3.8,18.2-11.6,21.6-21.7l1.4-4.2v-79.7V48.3l-1.4-4.2c-3.5-10.2-11.6-18.3-21.7-21.7l-4.2-1.4l-89.2-0.1C52.5,20.8,39.7,20.9,36.7,21.5z M219.3,39.2c3.2,1.4,7,5.3,8.6,8.7l1.1,2.4v48.5v48.5l-1.5,3.9c-5.9,15.5-17.1,28.8-32.9,39.2c-8.5,5.6-21.4,11.6-32.2,14.9l-5.2,1.6l-59.1-0.1l-59-0.2l-3.4-1.9c-2.2-1.2-4-2.7-5.3-4.4c-3.8-4.9-3.5,0.7-3.5-77.9c0-64,0.1-71.1,0.8-73.3c1.8-5.1,5.4-8.7,10.7-10.5c2.5-0.9,7.1-0.9,90.4-0.8l87.7,0.1L219.3,39.2z M229.1,186c-0.2,8.4-0.2,8.9-1.6,11.5c-1.8,3.4-4.3,6-7.7,7.8l-2.7,1.4l-14.4,0.2l-14.4,0.1l4.4-2.4c13.5-7.2,25.4-17.3,33.7-28.3l2.7-3.7l0.2,2.4C229.2,176.2,229.2,181.1,229.1,186z"/><path fill="#00A2C7" d="M168.3,64.3c-0.7,1.1-11.5,19.1-23.9,39.9c-12.4,20.8-22.9,38.2-23.2,38.6c-0.5,0.5-3.1-2.9-12.6-16.6c-6.5-9.5-12.1-17.4-12.3-17.5c-0.2-0.1-6.8,4.6-14.5,10.6c-7.8,6-14.6,11.1-15.2,11.6c-1,0.7-0.6,1.1,6.2,8c4,4,16.4,16.3,27.7,27.3l20.4,20.1l37.7-39.5l37.8-39.5l-12.9-22c-7.1-12.2-13.2-22.3-13.4-22.5C169.7,62.5,168.9,63.2,168.3,64.3z"/></g></g></g>
</svg>