<svg width="58" height="65" viewBox="0 0 58 65" fill="none" xmlns="http://www.w3.org/2000/svg">
<path d="M17.8461 23.8333C18.4378 23.8333 19.0052 24.0616 19.4235 24.4679C19.8419 24.8742 20.0769 25.4253 20.0769 26V52C20.0769 52.5746 19.8419 53.1257 19.4235 53.532C19.0052 53.9384 18.4378 54.1666 17.8461 54.1666C17.2545 54.1666 16.6871 53.9384 16.2687 53.532C15.8504 53.1257 15.6154 52.5746 15.6154 52V26C15.6154 25.4253 15.8504 24.8742 16.2687 24.4679C16.6871 24.0616 17.2545 23.8333 17.8461 23.8333ZM29 23.8333C29.5916 23.8333 30.159 24.0616 30.5774 24.4679C30.9957 24.8742 31.2307 25.4253 31.2307 26V52C31.2307 52.5746 30.9957 53.1257 30.5774 53.532C30.159 53.9384 29.5916 54.1666 29 54.1666C28.4083 54.1666 27.8409 53.9384 27.4226 53.532C27.0042 53.1257 26.7692 52.5746 26.7692 52V26C26.7692 25.4253 27.0042 24.8742 27.4226 24.4679C27.8409 24.0616 28.4083 23.8333 29 23.8333ZM42.3846 26C42.3846 25.4253 42.1496 24.8742 41.7312 24.4679C41.3129 24.0616 40.7455 23.8333 40.1538 23.8333C39.5622 23.8333 38.9948 24.0616 38.5764 24.4679C38.1581 24.8742 37.923 25.4253 37.923 26V52C37.923 52.5746 38.1581 53.1257 38.5764 53.532C38.9948 53.9384 39.5622 54.1666 40.1538 54.1666C40.7455 54.1666 41.3129 53.9384 41.7312 53.532C42.1496 53.1257 42.3846 52.5746 42.3846 52V26Z" fill="#ff0202"/>
<path d="M58 13C58 14.1493 57.5299 15.2515 56.6932 16.0641C55.8565 16.8768 54.7217 17.3333 53.5385 17.3333H51.3077V56.3333C51.3077 58.6319 50.3676 60.8363 48.6942 62.4616C47.0208 64.0869 44.7512 65 42.3846 65H15.6154C13.2488 65 10.9792 64.0869 9.30582 62.4616C7.63241 60.8363 6.69231 58.6319 6.69231 56.3333V17.3333H4.46154C3.27826 17.3333 2.14345 16.8768 1.30675 16.0641C0.470053 15.2515 0 14.1493 0 13V8.66667C0 7.5174 0.470053 6.41519 1.30675 5.60254C2.14345 4.78988 3.27826 4.33333 4.46154 4.33333H20.0769C20.0769 3.18406 20.547 2.08186 21.3837 1.2692C22.2204 0.456546 23.3552 0 24.5385 0L33.4615 0C34.6448 0 35.7796 0.456546 36.6163 1.2692C37.453 2.08186 37.9231 3.18406 37.9231 4.33333H53.5385C54.7217 4.33333 55.8565 4.78988 56.6932 5.60254C57.5299 6.41519 58 7.5174 58 8.66667V13ZM11.6803 17.3333L11.1538 17.589V56.3333C11.1538 57.4826 11.6239 58.5848 12.4606 59.3975C13.2973 60.2101 14.4321 60.6667 15.6154 60.6667H42.3846C43.5679 60.6667 44.7027 60.2101 45.5394 59.3975C46.3761 58.5848 46.8462 57.4826 46.8462 56.3333V17.589L46.3197 17.3333H11.6803ZM4.46154 13H53.5385V8.66667H4.46154V13Z" fill="#ff0202"/>
</svg>
